<?xml version="1.0" encoding="UTF-8" standalone="no"?>
<!-- Created with Inkscape (http://www.inkscape.org/) -->

<svg
   version="1.1"
   id="svg1"
   width="40"
   height="40"
   viewBox="0 0 40 40"
   sodipodi:docname="notification_dark.svg"
   inkscape:version="1.4.3 (fcd0343856, 2026-01-01)"
   xml:space="preserve"
   xmlns:inkscape="http://www.inkscape.org/namespaces/inkscape"
   xmlns:sodipodi="http://sodipodi.sourceforge.net/DTD/sodipodi-0.dtd"
   xmlns="http://www.w3.org/2000/svg"
   xmlns:svg="http://www.w3.org/2000/svg"><defs
     id="defs1"><inkscape:path-effect
       effect="fillet_chamfer"
       id="path-effect3"
       is_visible="true"
       lpeversion="1"
       nodesatellites_param="F,0,0,1,0,0.076036007,0,1 @ F,0,0,1,0,0.28988056,0,1 @ F,0,0,1,0,0.39101363,0,1 @ F,0,0,1,0,0.1655493,0,1 @ F,0,0,1,0,0.068159216,0,1 @ F,0,0,1,0,0.18308106,0,1 @ F,0,0,1,0,0.85945069,0,1 @ F,0,0,1,0,0.21220474,0,1 @ F,0,0,1,0,0.069667276,0,1 @ F,0,0,1,0,0.16211414,0,1 @ F,0,0,1,0,0.34189324,0,1 @ F,0,0,1,0,0.31407122,0,1 @ F,0,0,1,0,0.07883377,0,1 @ F,0,0,1,0,0.1759832,0,1 @ F,0,0,1,0,0.41537188,0,1 @ F,0,0,1,0,1.452798,0,1 @ F,0,0,1,0,1.1615892,0,1 @ F,0,0,1,0,1.0687761,0,1 @ F,0,0,1,0,1.0647704,0,1 @ F,0,0,1,0,1.7661646,0,1 @ F,0,0,1,0,0.23214075,0,1 @ F,0,0,1,0,0.16919765,0,1"
       radius="0"
       unit="px"
       method="auto"
       mode="F"
       chamfer_steps="1"
       flexible="false"
       use_knot_distance="true"
       apply_no_radius="true"
       apply_with_radius="true"
       only_selected="false"
       hide_knots="false" /><inkscape:path-effect
       effect="fillet_chamfer"
       id="path-effect2"
       is_visible="true"
       lpeversion="1"
       nodesatellites_param="F,0,0,1,0,0,0,1 @ F,0,0,1,0,1.0358847,0,1 @ F,0,0,1,0,1.1699025,0,1 @ F,0,0,1,0,0.80036173,0,1 @ F,0,0,1,0,1.173488,0,1 @ F,0,0,1,0,1.2336417,0,1 @ F,0,0,1,0,0.88410357,0,1 @ F,0,0,1,0,0.92559387,0,1 @ F,0,0,1,0,0.9852902,0,1 @ F,0,0,1,0,1.0617735,0,1 @ F,0,0,1,0,1.6850777,0,1"
       radius="0"
       unit="px"
       method="auto"
       mode="F"
       chamfer_steps="1"
       flexible="false"
       use_knot_distance="true"
       apply_no_radius="true"
       apply_with_radius="true"
       only_selected="false"
       hide_knots="false" /><inkscape:path-effect
       effect="fillet_chamfer"
       id="path-effect1"
       is_visible="true"
       lpeversion="1"
       nodesatellites_param="F,0,0,1,0,0,0,1 @ F,0,0,1,0,0,0,1 @ F,0,0,1,0,0,0,1 @ F,0,0,1,0,0,0,1 @ F,0,0,1,0,0,0,1 @ F,0,0,1,0,0,0,1 @ F,0,0,1,0,0,0,1 @ F,0,0,1,0,0,0,1 @ F,0,0,1,0,0,0,1 @ F,0,0,1,0,0,0,1 @ F,0,0,1,0,0,0,1"
       radius="0"
       unit="px"
       method="auto"
       mode="F"
       chamfer_steps="1"
       flexible="false"
       use_knot_distance="true"
       apply_no_radius="true"
       apply_with_radius="true"
       only_selected="false"
       hide_knots="false" /></defs><sodipodi:namedview
     id="namedview1"
     pagecolor="#ffffff"
     bordercolor="#999999"
     borderopacity="1"
     inkscape:showpageshadow="2"
     inkscape:pageopacity="0"
     inkscape:pagecheckerboard="0"
     inkscape:deskcolor="#d1d1d1"
     inkscape:zoom="8"
     inkscape:cx="26.5625"
     inkscape:cy="19.4375"
     inkscape:window-width="1920"
     inkscape:window-height="1011"
     inkscape:window-x="0"
     inkscape:window-y="0"
     inkscape:window-maximized="1"
     inkscape:current-layer="g1" /><g
     inkscape:groupmode="layer"
     inkscape:label="Image"
     id="g1"><path
       d="m 13.528159,10.353556 c -1.705457,1.700409 -2.759666,4.049956 -2.760729,6.645439 l -0.0029,3.298941 c -7.66e-4,1.867685 -0.384738,3.705031 -1.103142,5.411244 l 21.042817,0.0086 C 29.987154,24.010958 29.605517,22.174131 29.60545,20.305615 l 0.0013,-3.300564 C 29.608512,12.5706 26.528458,8.8623391 22.388602,7.8711946 A 2.3549658,2.3499155 0 0 0 21.857887,5.3704048 2.3549658,2.3499155 0 0 0 18.527464,5.3690472 2.3549658,2.3499155 0 0 0 17.994678,7.8694057 C 16.276761,8.2788348 14.736974,9.1483182 13.528159,10.353556 Z M 7.6781362,27.796781 a 1.1776007,1.1750752 0 0 0 0.8480465,2.006 l 9.0318243,0.0036 a 2.9437073,2.9373944 0 0 0 0.541756,3.394902 2.9437073,2.9373944 0 0 0 4.163031,0.0016 2.9437073,2.9373944 0 0 0 0.547787,-3.394459 l 9.028573,0.0036 a 1.1776007,1.1750752 0 1 0 9.62e-4,-2.349664 L 8.5271456,27.45296 a 1.1776007,1.1750752 0 0 0 -0.8490094,0.343665 z"
       id="path1"
       style="stroke-width:1.17622" /></g></svg>
