<?xml version="1.0" encoding="UTF-8" standalone="no"?>
<!-- Created with Inkscape (http://www.inkscape.org/) -->

<svg
   version="1.1"
   id="svg1"
   width="66.666664"
   height="66.666664"
   viewBox="0 0 66.666664 66.666664"
   sodipodi:docname="power.svg"
   inkscape:version="1.4.3 (fcd0343856, 2026-01-01)"
   xmlns:inkscape="http://www.inkscape.org/namespaces/inkscape"
   xmlns:sodipodi="http://sodipodi.sourceforge.net/DTD/sodipodi-0.dtd"
   xmlns="http://www.w3.org/2000/svg"
   xmlns:svg="http://www.w3.org/2000/svg">
  <defs
     id="defs1">
    <filter
       style="color-interpolation-filters:sRGB;"
       inkscape:label="Drop Shadow"
       id="filter18"
       x="-0.087350276"
       y="-0.088898535"
       width="1.1747006"
       height="1.1777971">
      <feFlood
         result="flood"
         in="SourceGraphic"
         flood-opacity="1.000000"
         flood-color="rgb(255,255,255)"
         id="feFlood17" />
      <feGaussianBlur
         result="blur"
         in="SourceGraphic"
         stdDeviation="2.000000"
         id="feGaussianBlur17" />
      <feOffset
         result="offset"
         in="blur"
         dx="0.000000"
         dy="0.000000"
         id="feOffset17" />
      <feComposite
         result="comp1"
         operator="in"
         in="offset"
         in2="flood"
         id="feComposite17" />
      <feComposite
         result="comp2"
         operator="over"
         in="SourceGraphic"
         in2="comp1"
         id="feComposite18" />
    </filter>
    <filter
       style="color-interpolation-filters:sRGB;"
       inkscape:label="Drop Shadow"
       id="filter20"
       x="-0.1271589"
       y="-0.1382305"
       width="1.2543178"
       height="1.276461">
      <feFlood
         result="flood"
         in="SourceGraphic"
         flood-opacity="1.000000"
         flood-color="rgb(255,255,255)"
         id="feFlood18" />
      <feGaussianBlur
         result="blur"
         in="SourceGraphic"
         stdDeviation="2.000000"
         id="feGaussianBlur18" />
      <feOffset
         result="offset"
         in="blur"
         dx="0.000000"
         dy="0.000000"
         id="feOffset18" />
      <feComposite
         result="comp1"
         operator="in"
         in="offset"
         in2="flood"
         id="feComposite19" />
      <feComposite
         result="comp2"
         operator="over"
         in="SourceGraphic"
         in2="comp1"
         id="feComposite20" />
    </filter>
    <filter
       style="color-interpolation-filters:sRGB;"
       inkscape:label="Drop Shadow"
       id="filter22"
       x="-1.4116333"
       y="-0.26351149"
       width="3.8232666"
       height="1.527023">
      <feFlood
         result="flood"
         in="SourceGraphic"
         flood-opacity="1.000000"
         flood-color="rgb(255,255,255)"
         id="feFlood20" />
      <feGaussianBlur
         result="blur"
         in="SourceGraphic"
         stdDeviation="2.000000"
         id="feGaussianBlur20" />
      <feOffset
         result="offset"
         in="blur"
         dx="0.000000"
         dy="0.000000"
         id="feOffset20" />
      <feComposite
         result="comp1"
         operator="in"
         in="offset"
         in2="flood"
         id="feComposite21" />
      <feComposite
         result="comp2"
         operator="over"
         in="SourceGraphic"
         in2="comp1"
         id="feComposite22" />
    </filter>
  </defs>
  <sodipodi:namedview
     id="namedview1"
     pagecolor="#ffffff"
     bordercolor="#999999"
     borderopacity="1"
     inkscape:showpageshadow="2"
     inkscape:pageopacity="0"
     inkscape:pagecheckerboard="0"
     inkscape:deskcolor="#d1d1d1"
     inkscape:zoom="8"
     inkscape:cx="26"
     inkscape:cy="29.1875"
     inkscape:window-width="1920"
     inkscape:window-height="1011"
     inkscape:window-x="0"
     inkscape:window-y="0"
     inkscape:window-maximized="1"
     inkscape:current-layer="g1" />
  <g
     inkscape:groupmode="layer"
     inkscape:label="Image"
     id="g1">
    <path
       id="path2501"
       style="fill:#000000;fill-opacity:1;stroke-width:1.00459;filter:url(#filter18)"
       d="M 33.796875 6.2597656 A 27.476261 26.997078 0 0 0 6.3203125 33.257812 A 27.476261 26.997078 0 0 0 33.796875 60.253906 A 27.476261 26.997078 0 0 0 61.271484 33.257812 A 27.476261 26.997078 0 0 0 33.796875 6.2597656 z M 34.337891 10.611328 A 22.99975 22.3965 0 0 1 57.337891 33.007812 A 22.99975 22.3965 0 0 1 34.337891 55.404297 A 22.99975 22.3965 0 0 1 11.337891 33.007812 A 22.99975 22.3965 0 0 1 34.337891 10.611328 z " />
    <path
       id="path2501-3"
       style="fill:#000000;fill-opacity:1;stroke-width:0.678486;filter:url(#filter20)"
       d="M 41.287109 16.138672 L 41.287109 20.658203 A 14.404362 13.942294 0 0 1 48.740234 32.871094 A 14.404362 13.942294 0 0 1 34.335938 46.8125 A 14.404362 13.942294 0 0 1 19.931641 32.871094 A 14.404362 13.942294 0 0 1 27.646484 20.523438 L 27.646484 16.302734 A 18.873655 17.92728 0 0 0 15.816406 32.935547 A 18.873655 17.92728 0 0 0 34.689453 50.863281 A 18.873655 17.92728 0 0 0 53.564453 32.935547 A 18.873655 17.92728 0 0 0 41.287109 16.138672 z " />
    <rect
       style="fill:#000000;fill-opacity:1;stroke-width:0.759728;filter:url(#filter22)"
       id="rect2504"
       width="3.4003165"
       height="18.215525"
       x="32.804443"
       y="12.897503"
       ry="0.4959521" />
  </g>
</svg>
